<?xml version="1.0" encoding="utf-8"?>
<!-- Generator: Adobe Illustrator 27.9.0, SVG Export Plug-In . SVG Version: 6.00 Build 0)  -->
<svg version="1.1" id="Calque_1" xmlns="http://www.w3.org/2000/svg" xmlns:xlink="http://www.w3.org/1999/xlink" x="0px" y="0px"
	 viewBox="0 0 801 476.5" style="enable-background:new 0 0 801 476.5;" xml:space="preserve">
<style type="text/css">
	.st0{fill:#FFFFFF;}
	.st1{fill:none;stroke:#FFFFFF;stroke-width:20;stroke-linecap:round;stroke-linejoin:round;stroke-miterlimit:133.3333;}
</style>
<g>
	<path class="st0" d="M3.6,472.6V362.7h14.9v109.9H3.6z M13.7,472.6V459h58.9v13.6H13.7z"/>
	<path class="st0" d="M131.6,474.2c-7.8,0-15.1-1.5-21.9-4.4c-6.8-2.9-12.7-7-17.7-12.2c-5.1-5.2-9-11.3-11.9-18.1
		c-2.9-6.9-4.3-14.2-4.3-22c0-7.9,1.4-15.3,4.3-22.1c2.9-6.8,6.8-12.8,11.8-18c5-5.2,10.9-9.2,17.6-12c6.7-2.9,14-4.3,21.8-4.3
		c7.8,0,15.1,1.4,21.8,4.3c6.7,2.9,12.6,6.9,17.7,12c5.1,5.2,9,11.2,11.9,18.1c2.9,6.9,4.3,14.3,4.3,22.2c0,7.8-1.4,15.2-4.3,22
		c-2.9,6.9-6.8,12.9-11.8,18.1c-5,5.2-10.9,9.2-17.6,12.1C146.5,472.7,139.3,474.2,131.6,474.2z M131.2,459.9
		c7.8,0,14.7-1.8,20.7-5.5c6-3.6,10.7-8.7,14.2-15c3.4-6.4,5.1-13.7,5.1-21.9c0-6.1-1-11.7-2.9-16.9c-2-5.1-4.7-9.6-8.3-13.4
		c-3.6-3.8-7.8-6.7-12.7-8.8c-4.9-2.1-10.2-3.1-16.2-3.1c-7.8,0-14.7,1.8-20.7,5.4c-6,3.6-10.7,8.6-14.1,14.9
		c-3.4,6.3-5.1,13.6-5.1,21.9c0,6.1,1,11.8,2.9,17c2,5.2,4.7,9.7,8.2,13.5c3.5,3.7,7.8,6.7,12.7,8.8
		C120.1,458.9,125.4,459.9,131.2,459.9z"/>
	<path class="st0" d="M256.8,474.2c-7.6,0-14.8-1.5-21.5-4.4c-6.7-2.9-12.6-6.9-17.6-12.1c-5-5.2-8.9-11.2-11.8-18.1
		c-2.9-6.9-4.3-14.3-4.3-22.2c0-7.9,1.4-15.3,4.3-22.1c2.9-6.8,6.8-12.8,11.9-18c5.1-5.2,11-9.2,17.8-12c6.8-2.9,14.2-4.3,22.3-4.3
		c8.8,0,16.8,1.7,24.2,5.1c7.4,3.4,13.6,8.2,18.5,14.6L290.4,391c-3.5-5.1-8.1-8.9-13.8-11.6c-5.7-2.7-11.9-4-18.7-4
		c-8,0-15.1,1.8-21.3,5.4c-6.2,3.6-11,8.6-14.4,14.9c-3.4,6.3-5.1,13.6-5.1,21.9c0,8.3,1.7,15.7,5.2,22c3.5,6.3,8.2,11.3,14.1,14.9
		c5.9,3.6,12.6,5.4,20.1,5.4c7.8,0,14.5-1.5,20.2-4.4c5.6-3,10-7.3,13-13.1c3-5.8,4.6-12.8,4.7-21.1l9,6.7h-47.5V414h53.8v2.2
		c0,12.8-2.2,23.5-6.7,32.1c-4.5,8.6-10.7,15.1-18.7,19.4C276.3,472,267.2,474.2,256.8,474.2z"/>
	<path class="st0" d="M329.5,472.6V362.7h14.9v109.9H329.5z"/>
	<path class="st0" d="M370.4,472.6V362.7h14.9v109.9H370.4z M380.5,376.3v-13.6h60v13.6H380.5z M380.5,424.3v-13.6h57.3v13.6H380.5z
		"/>
	<path class="st0" d="M460,472.6V362.7h14.9v109.9H460z M470.2,472.6V459h58.9v13.6H470.2z"/>
	<path class="st0" d="M588,474.2c-7.8,0-15.1-1.5-21.9-4.4c-6.8-2.9-12.7-7-17.7-12.2c-5.1-5.2-9-11.3-11.9-18.1
		c-2.9-6.9-4.3-14.2-4.3-22c0-7.9,1.4-15.3,4.3-22.1c2.9-6.8,6.8-12.8,11.8-18c5-5.2,10.9-9.2,17.6-12c6.7-2.9,14-4.3,21.8-4.3
		c7.8,0,15.1,1.4,21.8,4.3c6.7,2.9,12.6,6.9,17.7,12c5.1,5.2,9,11.2,11.9,18.1c2.9,6.9,4.3,14.3,4.3,22.2c0,7.8-1.4,15.2-4.3,22
		c-2.9,6.9-6.8,12.9-11.8,18.1c-5,5.2-10.9,9.2-17.6,12.1C602.9,472.7,595.7,474.2,588,474.2z M587.7,459.9c7.8,0,14.7-1.8,20.7-5.5
		c6-3.6,10.7-8.7,14.2-15c3.4-6.4,5.1-13.7,5.1-21.9c0-6.1-1-11.7-2.9-16.9c-2-5.1-4.7-9.6-8.3-13.4c-3.6-3.8-7.8-6.7-12.7-8.8
		c-4.9-2.1-10.2-3.1-16.2-3.1c-7.8,0-14.7,1.8-20.7,5.4c-6,3.6-10.7,8.6-14.1,14.9c-3.4,6.3-5.1,13.6-5.1,21.9c0,6.1,1,11.8,2.9,17
		c2,5.2,4.7,9.7,8.2,13.5c3.5,3.7,7.8,6.7,12.7,8.8C576.5,458.9,581.9,459.9,587.7,459.9z"/>
	<path class="st0" d="M686.5,472.6l-35.8-109.9h14.9l28.5,89.6h-4.3l28-89.6h10.8l28,89.6h-4.1l28.5-89.6h14.7L760,472.6h-10.6
		l-28.2-89.3h4.1l-28,89.3H686.5z"/>
</g>
<g id="SVGRepo_iconCarrier">
	<path class="st1" d="M468.8,106.4l47.3,26.3l-47.3,26.3 M468.8,106.4l-71,39.4l-71-39.4 M468.8,106.4l47.3-26.3L397.8,14.3
		L279.5,80.1l47.3,26.3 M326.8,106.4l-47.3,26.3l47.3,26.3 M468.8,158.9l47.3,26.3L397.8,251l-118.3-65.7l47.3-26.3 M468.8,158.9
		l-71,39.4l-71-39.4"/>
</g>
</svg>
