<?xml version="1.0" encoding="utf-8"?>
<!-- Generator: Adobe Illustrator 27.9.0, SVG Export Plug-In . SVG Version: 6.00 Build 0)  -->
<svg version="1.1" id="Calque_1" xmlns="http://www.w3.org/2000/svg" xmlns:xlink="http://www.w3.org/1999/xlink" x="0px" y="0px"
	 viewBox="0 0 801 449.5" style="enable-background:new 0 0 801 449.5;" xml:space="preserve">
<style type="text/css">
	.st0{fill:#186F65;}
	.st1{fill:none;stroke:#186F65;stroke-width:20;stroke-linecap:round;stroke-linejoin:round;stroke-miterlimit:133.3333;}
</style>
<g>
	<path class="st0" d="M1.8,446.2V336.5h21.2v109.7H1.8z M17.4,446.2v-18.9h55.8v18.9H17.4z"/>
	<path class="st0" d="M132.7,447.9c-8,0-15.5-1.5-22.4-4.4c-6.9-2.9-13-7-18.2-12.2c-5.2-5.2-9.3-11.2-12.2-18.1
		c-2.9-6.9-4.4-14.2-4.4-22.2c0-7.9,1.5-15.3,4.4-22.1c2.9-6.8,6.9-12.8,12.1-18c5.1-5.2,11.2-9.2,18-12c6.9-2.8,14.3-4.2,22.3-4.2
		c8.1,0,15.6,1.4,22.5,4.2c6.9,2.8,12.9,6.8,18,12c5.1,5.2,9.2,11.2,12.1,18.1c2.9,6.9,4.4,14.2,4.4,22.2c0,7.9-1.5,15.3-4.4,22.2
		c-2.9,6.9-6.9,12.9-12,18.1c-5.1,5.2-11.1,9.2-18,12.1C148,446.5,140.6,447.9,132.7,447.9z M132.4,428.3c7,0,13.1-1.6,18.3-4.7
		c5.2-3.1,9.3-7.5,12.2-13c2.9-5.6,4.4-12,4.4-19.4c0-5.4-0.8-10.3-2.5-14.8c-1.7-4.5-4.1-8.3-7.2-11.6c-3.1-3.3-6.8-5.8-11-7.6
		c-4.2-1.8-9-2.7-14.3-2.7c-6.9,0-12.9,1.5-18.1,4.6c-5.2,3.1-9.3,7.4-12.2,12.9c-3,5.5-4.4,11.9-4.4,19.2c0,5.5,0.8,10.6,2.5,15.1
		c1.7,4.6,4,8.5,7.1,11.7c3.1,3.2,6.8,5.7,11.1,7.6C122.6,427.3,127.3,428.3,132.4,428.3z"/>
	<path class="st0" d="M256.7,447.9c-7.7,0-15-1.5-21.8-4.4c-6.8-2.9-12.8-7-17.9-12.2c-5.1-5.2-9.2-11.2-12.1-18.1
		c-2.9-6.9-4.4-14.2-4.4-22.2c0-7.9,1.5-15.3,4.4-22.1c3-6.8,7-12.8,12.2-17.9c5.2-5.1,11.3-9.1,18.3-11.9c7-2.8,14.5-4.2,22.6-4.2
		c9,0,17.3,1.7,24.9,5c7.5,3.3,13.9,8.1,19,14.2l-14.5,14.5c-3.3-4.6-7.5-8.1-12.6-10.5c-5.1-2.4-10.7-3.6-16.8-3.6
		c-7,0-13.1,1.5-18.5,4.6c-5.4,3.1-9.5,7.4-12.6,12.9c-3,5.5-4.5,11.9-4.5,19c0,7.4,1.5,13.8,4.5,19.3c3,5.5,7.1,9.8,12.2,12.9
		c5.1,3.1,10.9,4.6,17.4,4.6c7,0,12.9-1.2,17.8-3.7c4.9-2.5,8.6-6.2,11.2-11.2c2.6-4.9,3.9-11,3.9-18.2l13.9,9.7l-48-0.5v-18.7h56
		v3.1c0,13.1-2.3,24.1-7,32.9c-4.7,8.8-11.1,15.5-19.3,19.9C276.8,445.7,267.3,447.9,256.7,447.9z"/>
	<path class="st0" d="M327.6,446.2V336.5h21.2v109.7H327.6z"/>
	<path class="st0" d="M371.2,446.2V336.5h21.2v109.7H371.2z M386.8,355.2v-18.7h57.9v18.7H386.8z M386.8,401.3v-18.7h55.2v18.7
		H386.8z"/>
	<path class="st0" d="M461.4,446.2V336.5h21.2v109.7H461.4z M477,446.2v-18.9h55.8v18.9H477z"/>
	<path class="st0" d="M592.3,447.9c-8,0-15.5-1.5-22.4-4.4c-6.9-2.9-13-7-18.2-12.2c-5.2-5.2-9.3-11.2-12.2-18.1
		c-2.9-6.9-4.4-14.2-4.4-22.2c0-7.9,1.5-15.3,4.4-22.1c2.9-6.8,6.9-12.8,12.1-18c5.1-5.2,11.2-9.2,18-12c6.9-2.8,14.3-4.2,22.3-4.2
		c8.1,0,15.6,1.4,22.5,4.2c6.9,2.8,12.9,6.8,18,12c5.1,5.2,9.2,11.2,12.1,18.1c2.9,6.9,4.4,14.2,4.4,22.2c0,7.9-1.5,15.3-4.4,22.2
		c-2.9,6.9-6.9,12.9-12,18.1c-5.1,5.2-11.1,9.2-18,12.1C607.6,446.5,600.2,447.9,592.3,447.9z M592,428.3c7,0,13.1-1.6,18.3-4.7
		c5.2-3.1,9.3-7.5,12.2-13c2.9-5.6,4.4-12,4.4-19.4c0-5.4-0.8-10.3-2.5-14.8c-1.7-4.5-4.1-8.3-7.2-11.6c-3.1-3.3-6.8-5.8-11-7.6
		c-4.2-1.8-9-2.7-14.3-2.7c-6.9,0-12.9,1.5-18.1,4.6c-5.2,3.1-9.3,7.4-12.2,12.9c-3,5.5-4.4,11.9-4.4,19.2c0,5.5,0.8,10.6,2.5,15.1
		c1.7,4.6,4,8.5,7.1,11.7c3.1,3.2,6.8,5.7,11.1,7.6C582.2,427.3,586.9,428.3,592,428.3z"/>
	<path class="st0" d="M689,446.2l-35.6-109.7h21.2l26.4,84.4h-7.2l25.7-84.4h15.9l25.7,84.4h-7l26.4-84.4h20.9l-35.6,109.7H750
		L724.1,362h6.9l-25.9,84.2H689z"/>
</g>
<g id="SVGRepo_iconCarrier">
	<path class="st1" d="M468.8,103.4l47.3,26.3l-47.3,26.3 M468.8,103.4l-71,39.4l-71-39.4 M468.8,103.4l47.3-26.3L397.8,11.3
		L279.5,77.1l47.3,26.3 M326.8,103.4l-47.3,26.3l47.3,26.3 M468.8,155.9l47.3,26.3L397.8,248l-118.3-65.7l47.3-26.3 M468.8,155.9
		l-71,39.4l-71-39.4"/>
</g>
</svg>
